<svg xmlns="http://www.w3.org/2000/svg" width="1920" height="1080" version="1.1"><defs><linearGradient id="gr0" x1="0%" x2="100%" y1="0%" y2="100%"><stop offset="0%" stop-color="rgb(236,240,241)"/><stop offset="100%" stop-color="rgb(236,240,241)"/></linearGradient></defs><polygon id="triangle36" points="1547,714 1806,936 1064,984" style="fill: url(#gr0); stroke: rgb(0, 0, 0); stroke-width: 0;"/><defs><linearGradient id="gr1" x1="0%" x2="100%" y1="0%" y2="100%"><stop offset="0%" stop-color="rgb(236,240,241)"/><stop offset="100%" stop-color="rgb(236,240,241)"/></linearGradient></defs><polygon id="triangle36" points="1064,984 1806,936 628,1033" style="fill: url(#gr1); stroke: rgb(0, 0, 0); stroke-width: 0;"/><defs><linearGradient id="gr2" x1="0%" x2="100%" y1="0%" y2="100%"><stop offset="0%" stop-color="rgb(93,215,252)"/><stop offset="100%" stop-color="rgb(140,223,248)"/></linearGradient></defs><polygon id="triangle36" points="1088,258 1298,163 1255,243" style="fill: url(#gr2); stroke: rgb(0, 0, 0); stroke-width: 0;"/><defs><linearGradient id="gr3" x1="0%" x2="100%" y1="0%" y2="100%"><stop offset="0%" stop-color="rgb(164,227,246)"/><stop offset="100%" stop-color="rgb(140,223,248)"/></linearGradient></defs><polygon id="triangle36" points="1064,984 1547,714 1084,818" style="fill: url(#gr3); stroke: rgb(0, 0, 0); stroke-width: 0;"/><defs><linearGradient id="gr4" x1="0%" x2="100%" y1="0%" y2="100%"><stop offset="0%" stop-color="rgb(236,240,241)"/><stop offset="100%" stop-color="rgb(236,240,241)"/></linearGradient></defs><polygon id="triangle36" points="458,369 485,358 373,176" style="fill: url(#gr4); stroke: rgb(0, 0, 0); stroke-width: 0;"/><defs><linearGradient id="gr5" x1="0%" x2="100%" y1="0%" y2="100%"><stop offset="0%" stop-color="rgb(236,240,241)"/><stop offset="100%" stop-color="rgb(236,240,241)"/></linearGradient></defs><polygon id="triangle36" points="485,358 518,65 373,176" style="fill: url(#gr5); stroke: rgb(0, 0, 0); stroke-width: 0;"/><defs><linearGradient id="gr6" x1="0%" x2="100%" y1="0%" y2="100%"><stop offset="0%" stop-color="rgb(122,219,249)"/><stop offset="100%" stop-color="rgb(208,234,243)"/></linearGradient></defs><polygon id="triangle36" points="1255,243 1298,163 1374,199" style="fill: url(#gr6); stroke: rgb(0, 0, 0); stroke-width: 0;"/><defs><linearGradient id="gr7" x1="0%" x2="100%" y1="0%" y2="100%"><stop offset="0%" stop-color="rgb(236,240,241)"/><stop offset="100%" stop-color="rgb(236,240,241)"/></linearGradient></defs><polygon id="triangle36" points="1494,603 1547,714 1587,711" style="fill: url(#gr7); stroke: rgb(0, 0, 0); stroke-width: 0;"/><defs><linearGradient id="gr8" x1="0%" x2="100%" y1="0%" y2="100%"><stop offset="0%" stop-color="rgb(236,240,241)"/><stop offset="100%" stop-color="rgb(236,240,241)"/></linearGradient></defs><polygon id="triangle36" points="1547,714 1806,936 1587,711" style="fill: url(#gr8); stroke: rgb(0, 0, 0); stroke-width: 0;"/><defs><linearGradient id="gr9" x1="0%" x2="100%" y1="0%" y2="100%"><stop offset="0%" stop-color="rgb(236,240,241)"/><stop offset="100%" stop-color="rgb(236,240,241)"/></linearGradient></defs><polygon id="triangle36" points="294,674 410,888 525,760" style="fill: url(#gr9); stroke: rgb(0, 0, 0); stroke-width: 0;"/><defs><linearGradient id="gr10" x1="0%" x2="100%" y1="0%" y2="100%"><stop offset="0%" stop-color="rgb(164,227,246)"/><stop offset="100%" stop-color="rgb(188,231,244)"/></linearGradient></defs><polygon id="triangle36" points="410,888 628,1033 525,760" style="fill: url(#gr10); stroke: rgb(0, 0, 0); stroke-width: 0;"/><defs><linearGradient id="gr11" x1="0%" x2="100%" y1="0%" y2="100%"><stop offset="0%" stop-color="rgb(236,240,241)"/><stop offset="100%" stop-color="rgb(188,231,244)"/></linearGradient></defs><polygon id="triangle36" points="658,611 789,708 525,760" style="fill: url(#gr11); stroke: rgb(0, 0, 0); stroke-width: 0;"/><defs><linearGradient id="gr12" x1="0%" x2="100%" y1="0%" y2="100%"><stop offset="0%" stop-color="rgb(93,215,252)"/><stop offset="100%" stop-color="rgb(93,215,252)"/></linearGradient></defs><polygon id="triangle36" points="789,708 1084,818 863,885" style="fill: url(#gr12); stroke: rgb(0, 0, 0); stroke-width: 0;"/><defs><linearGradient id="gr13" x1="0%" x2="100%" y1="0%" y2="100%"><stop offset="0%" stop-color="rgb(93,215,252)"/><stop offset="100%" stop-color="rgb(188,231,244)"/></linearGradient></defs><polygon id="triangle36" points="1088,258 1298,163 989,104" style="fill: url(#gr13); stroke: rgb(0, 0, 0); stroke-width: 0;"/><defs><linearGradient id="gr14" x1="0%" x2="100%" y1="0%" y2="100%"><stop offset="0%" stop-color="rgb(236,240,241)"/><stop offset="100%" stop-color="rgb(236,240,241)"/></linearGradient></defs><polygon id="triangle36" points="294,674 525,760 503,650" style="fill: url(#gr14); stroke: rgb(0, 0, 0); stroke-width: 0;"/><defs><linearGradient id="gr15" x1="0%" x2="100%" y1="0%" y2="100%"><stop offset="0%" stop-color="rgb(236,240,241)"/><stop offset="100%" stop-color="rgb(236,240,241)"/></linearGradient></defs><polygon id="triangle36" points="458,369 485,358 503,650" style="fill: url(#gr15); stroke: rgb(0, 0, 0); stroke-width: 0;"/><defs><linearGradient id="gr16" x1="0%" x2="100%" y1="0%" y2="100%"><stop offset="0%" stop-color="rgb(236,240,241)"/><stop offset="100%" stop-color="rgb(236,240,241)"/></linearGradient></defs><polygon id="triangle36" points="485,358 658,611 503,650" style="fill: url(#gr16); stroke: rgb(0, 0, 0); stroke-width: 0;"/><defs><linearGradient id="gr17" x1="0%" x2="100%" y1="0%" y2="100%"><stop offset="0%" stop-color="rgb(236,240,241)"/><stop offset="100%" stop-color="rgb(236,240,241)"/></linearGradient></defs><polygon id="triangle36" points="525,760 658,611 503,650" style="fill: url(#gr17); stroke: rgb(0, 0, 0); stroke-width: 0;"/><defs><linearGradient id="gr18" x1="0%" x2="100%" y1="0%" y2="100%"><stop offset="0%" stop-color="rgb(164,227,246)"/><stop offset="100%" stop-color="rgb(94,215,251)"/></linearGradient></defs><polygon id="triangle36" points="658,611 789,708 727,622" style="fill: url(#gr18); stroke: rgb(0, 0, 0); stroke-width: 0;"/><defs><linearGradient id="gr19" x1="0%" x2="100%" y1="0%" y2="100%"><stop offset="0%" stop-color="rgb(93,215,252)"/><stop offset="100%" stop-color="rgb(140,223,248)"/></linearGradient></defs><polygon id="triangle36" points="1084,818 1547,714 1289,633" style="fill: url(#gr19); stroke: rgb(0, 0, 0); stroke-width: 0;"/><defs><linearGradient id="gr20" x1="0%" x2="100%" y1="0%" y2="100%"><stop offset="0%" stop-color="rgb(236,240,241)"/><stop offset="100%" stop-color="rgb(188,231,244)"/></linearGradient></defs><polygon id="triangle36" points="1494,603 1547,714 1289,633" style="fill: url(#gr20); stroke: rgb(0, 0, 0); stroke-width: 0;"/><defs><linearGradient id="gr21" x1="0%" x2="100%" y1="0%" y2="100%"><stop offset="0%" stop-color="rgb(236,240,241)"/><stop offset="100%" stop-color="rgb(236,240,241)"/></linearGradient></defs><polygon id="triangle36" points="373,176 518,65 55,48" style="fill: url(#gr21); stroke: rgb(0, 0, 0); stroke-width: 0;"/><defs><linearGradient id="gr22" x1="0%" x2="100%" y1="0%" y2="100%"><stop offset="0%" stop-color="rgb(236,240,241)"/><stop offset="100%" stop-color="rgb(236,240,241)"/></linearGradient></defs><polygon id="triangle36" points="518,65 638,6 55,48" style="fill: url(#gr22); stroke: rgb(0, 0, 0); stroke-width: 0;"/><defs><linearGradient id="gr23" x1="0%" x2="100%" y1="0%" y2="100%"><stop offset="0%" stop-color="rgb(164,227,246)"/><stop offset="100%" stop-color="rgb(140,223,248)"/></linearGradient></defs><polygon id="triangle36" points="525,760 628,1033 701,954" style="fill: url(#gr23); stroke: rgb(0, 0, 0); stroke-width: 0;"/><defs><linearGradient id="gr24" x1="0%" x2="100%" y1="0%" y2="100%"><stop offset="0%" stop-color="rgb(164,227,246)"/><stop offset="100%" stop-color="rgb(93,215,252)"/></linearGradient></defs><polygon id="triangle36" points="525,760 789,708 701,954" style="fill: url(#gr24); stroke: rgb(0, 0, 0); stroke-width: 0;"/><defs><linearGradient id="gr25" x1="0%" x2="100%" y1="0%" y2="100%"><stop offset="0%" stop-color="rgb(93,215,252)"/><stop offset="100%" stop-color="rgb(93,215,252)"/></linearGradient></defs><polygon id="triangle36" points="789,708 863,885 701,954" style="fill: url(#gr25); stroke: rgb(0, 0, 0); stroke-width: 0;"/><defs><linearGradient id="gr26" x1="0%" x2="100%" y1="0%" y2="100%"><stop offset="0%" stop-color="rgb(93,215,252)"/><stop offset="100%" stop-color="rgb(93,215,252)"/></linearGradient></defs><polygon id="triangle36" points="855,914 863,885 701,954" style="fill: url(#gr26); stroke: rgb(0, 0, 0); stroke-width: 0;"/><defs><linearGradient id="gr27" x1="0%" x2="100%" y1="0%" y2="100%"><stop offset="0%" stop-color="rgb(236,240,241)"/><stop offset="100%" stop-color="rgb(236,240,241)"/></linearGradient></defs><polygon id="triangle36" points="209,739 294,674 242,807" style="fill: url(#gr27); stroke: rgb(0, 0, 0); stroke-width: 0;"/><defs><linearGradient id="gr28" x1="0%" x2="100%" y1="0%" y2="100%"><stop offset="0%" stop-color="rgb(236,240,241)"/><stop offset="100%" stop-color="rgb(236,240,241)"/></linearGradient></defs><polygon id="triangle36" points="294,674 410,888 242,807" style="fill: url(#gr28); stroke: rgb(0, 0, 0); stroke-width: 0;"/><defs><linearGradient id="gr29" x1="0%" x2="100%" y1="0%" y2="100%"><stop offset="0%" stop-color="rgb(164,227,246)"/><stop offset="100%" stop-color="rgb(96,215,251)"/></linearGradient></defs><polygon id="triangle36" points="1064,984 1084,818 938,988" style="fill: url(#gr29); stroke: rgb(0, 0, 0); stroke-width: 0;"/><defs><linearGradient id="gr30" x1="0%" x2="100%" y1="0%" y2="100%"><stop offset="0%" stop-color="rgb(236,240,241)"/><stop offset="100%" stop-color="rgb(192,232,244)"/></linearGradient></defs><polygon id="triangle36" points="628,1033 1064,984 938,988" style="fill: url(#gr30); stroke: rgb(0, 0, 0); stroke-width: 0;"/><defs><linearGradient id="gr31" x1="0%" x2="100%" y1="0%" y2="100%"><stop offset="0%" stop-color="rgb(164,227,246)"/><stop offset="100%" stop-color="rgb(96,215,251)"/></linearGradient></defs><polygon id="triangle36" points="628,1033 701,954 938,988" style="fill: url(#gr31); stroke: rgb(0, 0, 0); stroke-width: 0;"/><defs><linearGradient id="gr32" x1="0%" x2="100%" y1="0%" y2="100%"><stop offset="0%" stop-color="rgb(93,215,252)"/><stop offset="100%" stop-color="rgb(96,215,251)"/></linearGradient></defs><polygon id="triangle36" points="701,954 855,914 938,988" style="fill: url(#gr32); stroke: rgb(0, 0, 0); stroke-width: 0;"/><defs><linearGradient id="gr33" x1="0%" x2="100%" y1="0%" y2="100%"><stop offset="0%" stop-color="rgb(93,215,252)"/><stop offset="100%" stop-color="rgb(96,215,251)"/></linearGradient></defs><polygon id="triangle36" points="855,914 863,885 938,988" style="fill: url(#gr33); stroke: rgb(0, 0, 0); stroke-width: 0;"/><defs><linearGradient id="gr34" x1="0%" x2="100%" y1="0%" y2="100%"><stop offset="0%" stop-color="rgb(93,215,252)"/><stop offset="100%" stop-color="rgb(96,215,251)"/></linearGradient></defs><polygon id="triangle36" points="863,885 1084,818 938,988" style="fill: url(#gr34); stroke: rgb(0, 0, 0); stroke-width: 0;"/><defs><linearGradient id="gr35" x1="0%" x2="100%" y1="0%" y2="100%"><stop offset="0%" stop-color="rgb(93,215,252)"/><stop offset="100%" stop-color="rgb(93,215,252)"/></linearGradient></defs><polygon id="triangle36" points="1084,818 1289,633 1251,450" style="fill: url(#gr35); stroke: rgb(0, 0, 0); stroke-width: 0;"/><defs><linearGradient id="gr36" x1="0%" x2="100%" y1="0%" y2="100%"><stop offset="0%" stop-color="rgb(93,215,252)"/><stop offset="100%" stop-color="rgb(93,215,252)"/></linearGradient></defs><polygon id="triangle36" points="1088,258 1255,243 1251,450" style="fill: url(#gr36); stroke: rgb(0, 0, 0); stroke-width: 0;"/><defs><linearGradient id="gr37" x1="0%" x2="100%" y1="0%" y2="100%"><stop offset="0%" stop-color="rgb(93,215,252)"/><stop offset="100%" stop-color="rgb(140,223,248)"/></linearGradient></defs><polygon id="triangle36" points="1289,633 1494,603 1251,450" style="fill: url(#gr37); stroke: rgb(0, 0, 0); stroke-width: 0;"/><defs><linearGradient id="gr38" x1="0%" x2="100%" y1="0%" y2="100%"><stop offset="0%" stop-color="rgb(164,227,246)"/><stop offset="100%" stop-color="rgb(93,215,252)"/></linearGradient></defs><polygon id="triangle36" points="1494,603 1535,470 1251,450" style="fill: url(#gr38); stroke: rgb(0, 0, 0); stroke-width: 0;"/><defs><linearGradient id="gr39" x1="0%" x2="100%" y1="0%" y2="100%"><stop offset="0%" stop-color="rgb(164,227,246)"/><stop offset="100%" stop-color="rgb(188,231,244)"/></linearGradient></defs><polygon id="triangle36" points="485,358 518,65 795,268" style="fill: url(#gr39); stroke: rgb(0, 0, 0); stroke-width: 0;"/><defs><linearGradient id="gr40" x1="0%" x2="100%" y1="0%" y2="100%"><stop offset="0%" stop-color="rgb(164,227,246)"/><stop offset="100%" stop-color="rgb(188,231,244)"/></linearGradient></defs><polygon id="triangle36" points="485,358 658,611 795,268" style="fill: url(#gr40); stroke: rgb(0, 0, 0); stroke-width: 0;"/><defs><linearGradient id="gr41" x1="0%" x2="100%" y1="0%" y2="100%"><stop offset="0%" stop-color="rgb(236,240,241)"/><stop offset="100%" stop-color="rgb(236,240,241)"/></linearGradient></defs><polygon id="triangle36" points="518,65 638,6 795,268" style="fill: url(#gr41); stroke: rgb(0, 0, 0); stroke-width: 0;"/><defs><linearGradient id="gr42" x1="0%" x2="100%" y1="0%" y2="100%"><stop offset="0%" stop-color="rgb(236,240,241)"/><stop offset="100%" stop-color="rgb(236,240,241)"/></linearGradient></defs><polygon id="triangle36" points="638,6 989,104 795,268" style="fill: url(#gr42); stroke: rgb(0, 0, 0); stroke-width: 0;"/><defs><linearGradient id="gr43" x1="0%" x2="100%" y1="0%" y2="100%"><stop offset="0%" stop-color="rgb(164,227,246)"/><stop offset="100%" stop-color="rgb(141,223,248)"/></linearGradient></defs><polygon id="triangle36" points="658,611 727,622 795,268" style="fill: url(#gr43); stroke: rgb(0, 0, 0); stroke-width: 0;"/><defs><linearGradient id="gr44" x1="0%" x2="100%" y1="0%" y2="100%"><stop offset="0%" stop-color="rgb(236,240,241)"/><stop offset="100%" stop-color="rgb(188,231,244)"/></linearGradient></defs><polygon id="triangle36" points="1494,603 1535,470 1720,578" style="fill: url(#gr44); stroke: rgb(0, 0, 0); stroke-width: 0;"/><defs><linearGradient id="gr45" x1="0%" x2="100%" y1="0%" y2="100%"><stop offset="0%" stop-color="rgb(236,240,241)"/><stop offset="100%" stop-color="rgb(236,240,241)"/></linearGradient></defs><polygon id="triangle36" points="1494,603 1587,711 1720,578" style="fill: url(#gr45); stroke: rgb(0, 0, 0); stroke-width: 0;"/><defs><linearGradient id="gr46" x1="0%" x2="100%" y1="0%" y2="100%"><stop offset="0%" stop-color="rgb(236,240,241)"/><stop offset="100%" stop-color="rgb(236,240,241)"/></linearGradient></defs><polygon id="triangle36" points="1298,163 1374,199 1454,145" style="fill: url(#gr46); stroke: rgb(0, 0, 0); stroke-width: 0;"/><defs><linearGradient id="gr47" x1="0%" x2="100%" y1="0%" y2="100%"><stop offset="0%" stop-color="rgb(236,240,241)"/><stop offset="100%" stop-color="rgb(188,231,244)"/></linearGradient></defs><polygon id="triangle36" points="1374,199 1535,470 1454,145" style="fill: url(#gr47); stroke: rgb(0, 0, 0); stroke-width: 0;"/><defs><linearGradient id="gr48" x1="0%" x2="100%" y1="0%" y2="100%"><stop offset="0%" stop-color="rgb(236,240,241)"/><stop offset="100%" stop-color="rgb(236,240,241)"/></linearGradient></defs><polygon id="triangle36" points="638,6 989,104 1454,145" style="fill: url(#gr48); stroke: rgb(0, 0, 0); stroke-width: 0;"/><defs><linearGradient id="gr49" x1="0%" x2="100%" y1="0%" y2="100%"><stop offset="0%" stop-color="rgb(164,227,246)"/><stop offset="100%" stop-color="rgb(188,231,244)"/></linearGradient></defs><polygon id="triangle36" points="989,104 1298,163 1454,145" style="fill: url(#gr49); stroke: rgb(0, 0, 0); stroke-width: 0;"/><defs><linearGradient id="gr50" x1="0%" x2="100%" y1="0%" y2="100%"><stop offset="0%" stop-color="rgb(93,215,252)"/><stop offset="100%" stop-color="rgb(112,218,250)"/></linearGradient></defs><polygon id="triangle36" points="1084,818 1251,450 965,332" style="fill: url(#gr50); stroke: rgb(0, 0, 0); stroke-width: 0;"/><defs><linearGradient id="gr51" x1="0%" x2="100%" y1="0%" y2="100%"><stop offset="0%" stop-color="rgb(93,215,252)"/><stop offset="100%" stop-color="rgb(112,218,250)"/></linearGradient></defs><polygon id="triangle36" points="1088,258 1251,450 965,332" style="fill: url(#gr51); stroke: rgb(0, 0, 0); stroke-width: 0;"/><defs><linearGradient id="gr52" x1="0%" x2="100%" y1="0%" y2="100%"><stop offset="0%" stop-color="rgb(94,215,251)"/><stop offset="100%" stop-color="rgb(112,218,250)"/></linearGradient></defs><polygon id="triangle36" points="727,622 789,708 965,332" style="fill: url(#gr52); stroke: rgb(0, 0, 0); stroke-width: 0;"/><defs><linearGradient id="gr53" x1="0%" x2="100%" y1="0%" y2="100%"><stop offset="0%" stop-color="rgb(94,215,251)"/><stop offset="100%" stop-color="rgb(160,226,246)"/></linearGradient></defs><polygon id="triangle36" points="727,622 795,268 965,332" style="fill: url(#gr53); stroke: rgb(0, 0, 0); stroke-width: 0;"/><defs><linearGradient id="gr54" x1="0%" x2="100%" y1="0%" y2="100%"><stop offset="0%" stop-color="rgb(93,215,252)"/><stop offset="100%" stop-color="rgb(112,218,250)"/></linearGradient></defs><polygon id="triangle36" points="789,708 1084,818 965,332" style="fill: url(#gr54); stroke: rgb(0, 0, 0); stroke-width: 0;"/><defs><linearGradient id="gr55" x1="0%" x2="100%" y1="0%" y2="100%"><stop offset="0%" stop-color="rgb(236,240,241)"/><stop offset="100%" stop-color="rgb(208,234,243)"/></linearGradient></defs><polygon id="triangle36" points="795,268 989,104 965,332" style="fill: url(#gr55); stroke: rgb(0, 0, 0); stroke-width: 0;"/><defs><linearGradient id="gr56" x1="0%" x2="100%" y1="0%" y2="100%"><stop offset="0%" stop-color="rgb(214,236,242)"/><stop offset="100%" stop-color="rgb(145,223,247)"/></linearGradient></defs><polygon id="triangle36" points="989,104 1088,258 965,332" style="fill: url(#gr56); stroke: rgb(0, 0, 0); stroke-width: 0;"/><defs><linearGradient id="gr57" x1="0%" x2="100%" y1="0%" y2="100%"><stop offset="0%" stop-color="rgb(236,240,241)"/><stop offset="100%" stop-color="rgb(236,240,241)"/></linearGradient></defs><polygon id="triangle36" points="217,612 294,674 351,508" style="fill: url(#gr57); stroke: rgb(0, 0, 0); stroke-width: 0;"/><defs><linearGradient id="gr58" x1="0%" x2="100%" y1="0%" y2="100%"><stop offset="0%" stop-color="rgb(236,240,241)"/><stop offset="100%" stop-color="rgb(236,240,241)"/></linearGradient></defs><polygon id="triangle36" points="294,674 503,650 351,508" style="fill: url(#gr58); stroke: rgb(0, 0, 0); stroke-width: 0;"/><defs><linearGradient id="gr59" x1="0%" x2="100%" y1="0%" y2="100%"><stop offset="0%" stop-color="rgb(236,240,241)"/><stop offset="100%" stop-color="rgb(236,240,241)"/></linearGradient></defs><polygon id="triangle36" points="458,369 503,650 351,508" style="fill: url(#gr59); stroke: rgb(0, 0, 0); stroke-width: 0;"/><defs><linearGradient id="gr60" x1="0%" x2="100%" y1="0%" y2="100%"><stop offset="0%" stop-color="rgb(236,240,241)"/><stop offset="100%" stop-color="rgb(236,240,241)"/></linearGradient></defs><polygon id="triangle36" points="95,380 217,612 351,508" style="fill: url(#gr60); stroke: rgb(0, 0, 0); stroke-width: 0;"/><defs><linearGradient id="gr61" x1="0%" x2="100%" y1="0%" y2="100%"><stop offset="0%" stop-color="rgb(236,240,241)"/><stop offset="100%" stop-color="rgb(188,231,244)"/></linearGradient></defs><polygon id="triangle36" points="1454,145 1535,470 1716,432" style="fill: url(#gr61); stroke: rgb(0, 0, 0); stroke-width: 0;"/><defs><linearGradient id="gr62" x1="0%" x2="100%" y1="0%" y2="100%"><stop offset="0%" stop-color="rgb(164,227,246)"/><stop offset="100%" stop-color="rgb(236,240,241)"/></linearGradient></defs><polygon id="triangle36" points="1535,470 1720,578 1716,432" style="fill: url(#gr62); stroke: rgb(0, 0, 0); stroke-width: 0;"/><defs><linearGradient id="gr63" x1="0%" x2="100%" y1="0%" y2="100%"><stop offset="0%" stop-color="rgb(236,240,241)"/><stop offset="100%" stop-color="rgb(236,240,241)"/></linearGradient></defs><polygon id="triangle36" points="209,739 294,674 179,644" style="fill: url(#gr63); stroke: rgb(0, 0, 0); stroke-width: 0;"/><defs><linearGradient id="gr64" x1="0%" x2="100%" y1="0%" y2="100%"><stop offset="0%" stop-color="rgb(236,240,241)"/><stop offset="100%" stop-color="rgb(236,240,241)"/></linearGradient></defs><polygon id="triangle36" points="217,612 294,674 179,644" style="fill: url(#gr64); stroke: rgb(0, 0, 0); stroke-width: 0;"/><defs><linearGradient id="gr65" x1="0%" x2="100%" y1="0%" y2="100%"><stop offset="0%" stop-color="rgb(236,240,241)"/><stop offset="100%" stop-color="rgb(236,240,241)"/></linearGradient></defs><polygon id="triangle36" points="95,380 217,612 179,644" style="fill: url(#gr65); stroke: rgb(0, 0, 0); stroke-width: 0;"/><defs><linearGradient id="gr66" x1="0%" x2="100%" y1="0%" y2="100%"><stop offset="0%" stop-color="rgb(236,240,241)"/><stop offset="100%" stop-color="rgb(236,240,241)"/></linearGradient></defs><polygon id="triangle36" points="1454,145 1716,432 1874,142" style="fill: url(#gr66); stroke: rgb(0, 0, 0); stroke-width: 0;"/><defs><linearGradient id="gr67" x1="0%" x2="100%" y1="0%" y2="100%"><stop offset="0%" stop-color="rgb(236,240,241)"/><stop offset="100%" stop-color="rgb(236,240,241)"/></linearGradient></defs><polygon id="triangle36" points="638,6 1454,145 1874,142" style="fill: url(#gr67); stroke: rgb(0, 0, 0); stroke-width: 0;"/><defs><linearGradient id="gr68" x1="0%" x2="100%" y1="0%" y2="100%"><stop offset="0%" stop-color="rgb(236,240,241)"/><stop offset="100%" stop-color="rgb(236,240,241)"/></linearGradient></defs><polygon id="triangle36" points="351,508 458,369 323,207" style="fill: url(#gr68); stroke: rgb(0, 0, 0); stroke-width: 0;"/><defs><linearGradient id="gr69" x1="0%" x2="100%" y1="0%" y2="100%"><stop offset="0%" stop-color="rgb(236,240,241)"/><stop offset="100%" stop-color="rgb(236,240,241)"/></linearGradient></defs><polygon id="triangle36" points="373,176 458,369 323,207" style="fill: url(#gr69); stroke: rgb(0, 0, 0); stroke-width: 0;"/><defs><linearGradient id="gr70" x1="0%" x2="100%" y1="0%" y2="100%"><stop offset="0%" stop-color="rgb(236,240,241)"/><stop offset="100%" stop-color="rgb(236,240,241)"/></linearGradient></defs><polygon id="triangle36" points="55,48 373,176 323,207" style="fill: url(#gr70); stroke: rgb(0, 0, 0); stroke-width: 0;"/><defs><linearGradient id="gr71" x1="0%" x2="100%" y1="0%" y2="100%"><stop offset="0%" stop-color="rgb(236,240,241)"/><stop offset="100%" stop-color="rgb(236,240,241)"/></linearGradient></defs><polygon id="triangle36" points="55,48 95,380 323,207" style="fill: url(#gr71); stroke: rgb(0, 0, 0); stroke-width: 0;"/><defs><linearGradient id="gr72" x1="0%" x2="100%" y1="0%" y2="100%"><stop offset="0%" stop-color="rgb(236,240,241)"/><stop offset="100%" stop-color="rgb(236,240,241)"/></linearGradient></defs><polygon id="triangle36" points="95,380 351,508 323,207" style="fill: url(#gr72); stroke: rgb(0, 0, 0); stroke-width: 0;"/><defs><linearGradient id="gr73" x1="0%" x2="100%" y1="0%" y2="100%"><stop offset="0%" stop-color="rgb(93,215,252)"/><stop offset="100%" stop-color="rgb(93,215,252)"/></linearGradient></defs><polygon id="triangle36" points="1251,450 1255,243 1332,346" style="fill: url(#gr73); stroke: rgb(0, 0, 0); stroke-width: 0;"/><defs><linearGradient id="gr74" x1="0%" x2="100%" y1="0%" y2="100%"><stop offset="0%" stop-color="rgb(93,215,252)"/><stop offset="100%" stop-color="rgb(93,215,252)"/></linearGradient></defs><polygon id="triangle36" points="1251,450 1535,470 1332,346" style="fill: url(#gr74); stroke: rgb(0, 0, 0); stroke-width: 0;"/><defs><linearGradient id="gr75" x1="0%" x2="100%" y1="0%" y2="100%"><stop offset="0%" stop-color="rgb(93,215,252)"/><stop offset="100%" stop-color="rgb(140,223,248)"/></linearGradient></defs><polygon id="triangle36" points="1255,243 1374,199 1332,346" style="fill: url(#gr75); stroke: rgb(0, 0, 0); stroke-width: 0;"/><defs><linearGradient id="gr76" x1="0%" x2="100%" y1="0%" y2="100%"><stop offset="0%" stop-color="rgb(164,227,246)"/><stop offset="100%" stop-color="rgb(93,215,252)"/></linearGradient></defs><polygon id="triangle36" points="1374,199 1535,470 1332,346" style="fill: url(#gr76); stroke: rgb(0, 0, 0); stroke-width: 0;"/><defs><linearGradient id="gr77" x1="0%" x2="100%" y1="0%" y2="100%"><stop offset="0%" stop-color="rgb(236,240,241)"/><stop offset="100%" stop-color="rgb(236,240,241)"/></linearGradient></defs><polygon id="triangle36" points="1587,711 1720,578 1878,762" style="fill: url(#gr77); stroke: rgb(0, 0, 0); stroke-width: 0;"/><defs><linearGradient id="gr78" x1="0%" x2="100%" y1="0%" y2="100%"><stop offset="0%" stop-color="rgb(236,240,241)"/><stop offset="100%" stop-color="rgb(236,240,241)"/></linearGradient></defs><polygon id="triangle36" points="1587,711 1806,936 1878,762" style="fill: url(#gr78); stroke: rgb(0, 0, 0); stroke-width: 0;"/><defs><linearGradient id="gr79" x1="0%" x2="100%" y1="0%" y2="100%"><stop offset="0%" stop-color="rgb(236,240,241)"/><stop offset="100%" stop-color="rgb(236,240,241)"/></linearGradient></defs><polygon id="triangle36" points="1720,578 1778,564 1878,762" style="fill: url(#gr79); stroke: rgb(0, 0, 0); stroke-width: 0;"/><defs><linearGradient id="gr80" x1="0%" x2="100%" y1="0%" y2="100%"><stop offset="0%" stop-color="rgb(236,240,241)"/><stop offset="100%" stop-color="rgb(236,240,241)"/></linearGradient></defs><polygon id="triangle36" points="1716,432 1720,578 1782,466" style="fill: url(#gr80); stroke: rgb(0, 0, 0); stroke-width: 0;"/><defs><linearGradient id="gr81" x1="0%" x2="100%" y1="0%" y2="100%"><stop offset="0%" stop-color="rgb(236,240,241)"/><stop offset="100%" stop-color="rgb(236,240,241)"/></linearGradient></defs><polygon id="triangle36" points="1716,432 1874,142 1782,466" style="fill: url(#gr81); stroke: rgb(0, 0, 0); stroke-width: 0;"/><defs><linearGradient id="gr82" x1="0%" x2="100%" y1="0%" y2="100%"><stop offset="0%" stop-color="rgb(236,240,241)"/><stop offset="100%" stop-color="rgb(236,240,241)"/></linearGradient></defs><polygon id="triangle36" points="1720,578 1778,564 1782,466" style="fill: url(#gr82); stroke: rgb(0, 0, 0); stroke-width: 0;"/><defs><linearGradient id="gr83" x1="0%" x2="100%" y1="0%" y2="100%"><stop offset="0%" stop-color="rgb(236,240,241)"/><stop offset="100%" stop-color="rgb(236,240,241)"/></linearGradient></defs><polygon id="triangle36" points="1778,564 1878,762 1782,466" style="fill: url(#gr83); stroke: rgb(0, 0, 0); stroke-width: 0;"/><defs><linearGradient id="gr84" x1="0%" x2="100%" y1="0%" y2="100%"><stop offset="0%" stop-color="rgb(236,240,241)"/><stop offset="100%" stop-color="rgb(236,240,241)"/></linearGradient></defs><polygon id="triangle36" points="1874,142 1878,762 1782,466" style="fill: url(#gr84); stroke: rgb(0, 0, 0); stroke-width: 0;"/><defs><linearGradient id="gr85" x1="0%" x2="100%" y1="0%" y2="100%"><stop offset="0%" stop-color="rgb(236,240,241)"/><stop offset="100%" stop-color="rgb(236,240,241)"/></linearGradient></defs><polygon id="triangle36" points="179,644 209,739 62,755" style="fill: url(#gr85); stroke: rgb(0, 0, 0); stroke-width: 0;"/><defs><linearGradient id="gr86" x1="0%" x2="100%" y1="0%" y2="100%"><stop offset="0%" stop-color="rgb(236,240,241)"/><stop offset="100%" stop-color="rgb(236,240,241)"/></linearGradient></defs><polygon id="triangle36" points="209,739 242,807 62,755" style="fill: url(#gr86); stroke: rgb(0, 0, 0); stroke-width: 0;"/><defs><linearGradient id="gr87" x1="0%" x2="100%" y1="0%" y2="100%"><stop offset="0%" stop-color="rgb(236,240,241)"/><stop offset="100%" stop-color="rgb(236,240,241)"/></linearGradient></defs><polygon id="triangle36" points="242,807 410,888 62,755" style="fill: url(#gr87); stroke: rgb(0, 0, 0); stroke-width: 0;"/><defs><linearGradient id="gr88" x1="0%" x2="100%" y1="0%" y2="100%"><stop offset="0%" stop-color="rgb(236,240,241)"/><stop offset="100%" stop-color="rgb(236,240,241)"/></linearGradient></defs><polygon id="triangle36" points="410,888 628,1033 62,755" style="fill: url(#gr88); stroke: rgb(0, 0, 0); stroke-width: 0;"/><defs><linearGradient id="gr89" x1="0%" x2="100%" y1="0%" y2="100%"><stop offset="0%" stop-color="rgb(236,240,241)"/><stop offset="100%" stop-color="rgb(236,240,241)"/></linearGradient></defs><polygon id="triangle36" points="55,48 95,380 62,755" style="fill: url(#gr89); stroke: rgb(0, 0, 0); stroke-width: 0;"/><defs><linearGradient id="gr90" x1="0%" x2="100%" y1="0%" y2="100%"><stop offset="0%" stop-color="rgb(236,240,241)"/><stop offset="100%" stop-color="rgb(236,240,241)"/></linearGradient></defs><polygon id="triangle36" points="95,380 179,644 62,755" style="fill: url(#gr90); stroke: rgb(0, 0, 0); stroke-width: 0;"/></svg>